<?xml version="1.0" encoding="UTF-8"?>
<svg id="Layer_1" data-name="Layer 1" xmlns="http://www.w3.org/2000/svg" xmlns:xlink="http://www.w3.org/1999/xlink" viewBox="0 0 306.41 453.01">
  <defs>
    <style>
      .cls-1 {
        fill: url(#linear-gradient-4);
      }

      .cls-1, .cls-2, .cls-3, .cls-4, .cls-5, .cls-6, .cls-7, .cls-8, .cls-9, .cls-10 {
        fill-rule: evenodd;
      }

      .cls-2 {
        fill: url(#linear-gradient);
        mix-blend-mode: multiply;
      }

      .cls-3 {
        fill: #fff;
      }

      .cls-11, .cls-9 {
        fill: #003a91;
      }

      .cls-4 {
        fill: url(#linear-gradient-2);
      }

      .cls-5 {
        fill: #0098da;
      }

      .cls-12 {
        fill: none;
        stroke: #003a91;
        stroke-linecap: round;
        stroke-linejoin: round;
        stroke-width: 4.25px;
      }

      .cls-6 {
        fill: url(#linear-gradient-5);
      }

      .cls-7 {
        fill: #00afef;
      }

      .cls-13 {
        filter: url(#luminosity-noclip);
      }

      .cls-8 {
        fill: #91d8f7;
      }

      .cls-14 {
        mask: url(#mask-1);
      }

      .cls-15 {
        mask: url(#mask);
      }

      .cls-10 {
        fill: url(#linear-gradient-3);
      }
    </style>
    <filter id="luminosity-noclip" x="59.14" y="132.32" width="49.47" height="50.85" color-interpolation-filters="sRGB" filterUnits="userSpaceOnUse">
      <feFlood flood-color="#fff" result="bg"/>
      <feBlend in="SourceGraphic" in2="bg"/>
    </filter>
    <filter id="luminosity-noclip-2" x="59.14" y="-8671.5" width="49.47" height="32766" color-interpolation-filters="sRGB" filterUnits="userSpaceOnUse">
      <feFlood flood-color="#fff" result="bg"/>
      <feBlend in="SourceGraphic" in2="bg"/>
    </filter>
    <mask id="mask-1" x="59.14" y="-8671.5" width="49.47" height="32766" maskUnits="userSpaceOnUse"/>
    <linearGradient id="linear-gradient" x1="67.34" y1="147.6" x2="103.72" y2="181.3" gradientUnits="userSpaceOnUse">
      <stop offset="0" stop-color="#000"/>
      <stop offset=".28" stop-color="#4b4b4b"/>
      <stop offset=".78" stop-color="#cbcbcb"/>
      <stop offset="1" stop-color="#fff"/>
    </linearGradient>
    <mask id="mask" x="59.14" y="132.32" width="49.47" height="50.85" maskUnits="userSpaceOnUse">
      <g class="cls-13">
        <g class="cls-14">
          <polygon class="cls-2" points="108.61 174.64 78.72 132.32 59.14 165.8 101.74 183.18 108.61 174.64"/>
        </g>
      </g>
    </mask>
    <linearGradient id="linear-gradient-2" x1="67.34" y1="147.6" x2="103.72" y2="181.3" gradientUnits="userSpaceOnUse">
      <stop offset="0" stop-color="#00cbff"/>
      <stop offset=".63" stop-color="#006cf0"/>
      <stop offset="1" stop-color="#0039e8"/>
    </linearGradient>
    <linearGradient id="linear-gradient-3" x1="137.03" y1="169.9" x2="235.47" y2="169.9" gradientUnits="userSpaceOnUse">
      <stop offset="0" stop-color="#6acff6"/>
      <stop offset=".82" stop-color="#006fe8"/>
    </linearGradient>
    <linearGradient id="linear-gradient-4" x1="134.38" y1="182.92" x2="207.89" y2="182.92" xlink:href="#linear-gradient-3"/>
    <linearGradient id="linear-gradient-5" x1="137.49" y1="191.1" x2="164.66" y2="191.1" xlink:href="#linear-gradient-3"/>
  </defs>
  <path class="cls-7" d="m10.77,299.85l97.82-75.18,99.88,81.76v14.79l-14.63,13.31.12,94.47s-60.21,29.57-127.91-10.78C-1.64,377.87,10.77,299.85,10.77,299.85"/>
  <path class="cls-5" d="m209.07,303.98l2.79,2.29v14.79l-7.71,7.01c2.64-7.63,4.33-15.7,4.91-24.08m-194.9-4.3l7.29-5.6c-.04,1.07-.06,2.15-.06,3.23,0,51.89,42.06,93.96,93.95,93.96,35.14,0,65.77-19.3,81.88-47.87l.11,85.44s-60.21,29.57-127.91-10.78C1.75,377.71,14.16,299.68,14.16,299.68Z"/>
  <polygon class="cls-8" points="109.09 220.05 37.93 233.28 15.3 298.15 109.09 220.05"/>
  <path class="cls-11" d="m240.55,386.21c2.62-3.8,7.82-4.75,11.62-2.13,3.79,2.62,4.75,7.82,2.12,11.62-12.32,17.86-28.62,31.54-47.03,41.05-23.48,12.14-50.43,17.48-76.93,16.03-26.53-1.45-52.69-9.73-74.56-24.82-16.58-11.44-30.68-26.78-40.61-46C-1.59,349.53-3.15,316.86,4.14,284.23c7.12-31.84,22.67-63.4,40.62-94.59,2.29-4,7.39-5.37,11.39-3.08,4,2.3,5.37,7.4,3.08,11.39-17.23,29.94-32.12,60.07-38.78,89.87-6.48,29.02-5.15,57.95,9.58,86.47,8.62,16.67,20.85,29.98,35.25,39.91,19.26,13.28,42.41,20.58,65.98,21.88,23.6,1.29,47.54-3.44,68.35-14.19,16.06-8.3,30.25-20.19,40.95-35.68M101.44,127.87c-2.35,3.98-7.48,5.3-11.45,2.95-3.98-2.35-5.3-7.48-2.95-11.46,11.51-19.48,22.04-38.71,29.87-57.52,7.67-18.42,12.75-36.44,13.6-53.88.22-4.61,4.13-8.17,8.74-7.95,4.35.21,7.77,3.7,7.95,7.97,2.1,43.05,31.31,91.31,61.32,140.87,24.77,40.92,50.07,82.7,62.14,124.5,1.28,4.43-1.27,9.06-5.7,10.34-4.42,1.28-9.06-1.27-10.34-5.69-11.47-39.74-36.18-80.54-60.37-120.5-22.08-36.47-43.75-72.27-55.3-106.86-1.93,5.86-4.14,11.73-6.59,17.63-8.19,19.67-19.07,39.55-30.92,59.61Z"/>
  <path class="cls-12" d="m259.26,371.63c-.05,5.7-.9,10.48-2.37,14.38"/>
  <path class="cls-9" d="m119.93,188.83l134.61,105.86c.54.42.63,1.23.19,1.77-.43.54-1.23.63-1.77.19l-134.62-105.86c-.54-.43-.63-1.23-.19-1.77.44-.54,1.23-.62,1.77-.19m-6.19-9.67l-2.09-1.69c-.88-.71-2.18-.57-2.89.32-.71.88-.57,2.19.31,2.89l2.1,1.69c.88.7,2.18.57,2.89-.32.71-.88.57-2.18-.32-2.89Zm150.39,161.64c-1.01.04-1.94.71-2.25,1.72l-3.84,12.45c-.32,1.05.11,2.17.99,2.75l-5.84,18.33c-.74,2.31-2.51,4.99-4.89,4.47l-11.02-2.43c-.78-.18-1.49-.33-2.01-.95-.53-.6-.68-1.41-.38-2.15l16.6-40.71c.69-1.72,1.98-3.05,3.56-3.72,1.58-.67,2.92-.7,4.38-.24-.91,3-4.93,16.2-6.96,20.48-1.2,2.53-2.55,6.16-4.37,8.13-.7.77-1.65.76-2.84.76h-.14c-.77,0-1.4.62-1.41,1.39,0,.78.62,1.41,1.4,1.41h.14c1.88,0,3.37.02,4.92-1.67,1.61-1.75,2.82-4.42,3.99-6.99.28-.62.55-1.23.84-1.83,1.9-4,6.54-15.77,8.09-19.73.77.71,1.22,1.24,1.7,2.66.48,1.42.1,3.39-.45,5.18l-.21.69Zm32.11-26.28l-.81-.66-21.83-17.55c-6.14-4.94-11.98-2.18-13.81.1l-143.17-112.74c1.41-1.75,1.13-4.34-.63-5.75l-2.89-2.32c-1.75-1.41-4.34-1.13-5.75.62l-5.6,6.97c-1.41,1.75-1.12,4.35.63,5.76l2.89,2.32c1.75,1.41,4.34,1.13,5.75-.63l143.17,112.74-1.87,2.32c-1.83,2.28,1.57,4.66.81,7.49-6.02,22.52-17.37,43.28-25.88,65.08-.3.74-.14,1.54.39,2.15.53.6,1.29.87,2.07.7l21.38,6.23,8.22-1.69h0s.25-.05.25-.05l.25-.05c3.33-.68,5.81-3.07,6.63-6.37,2.34-9.39,6.4-24.82,8.97-31.85,1.84-5.06,4.34-8.92,6.32-11.37,1.66-2.06,4.24-5.24,9.17-1.28,4.09,3.29,10.11,2.63,13.4-1.46,3.29-4.09,2.64-10.11-1.45-13.4l-6.61-5.32Z"/>
  <g class="cls-15">
    <polygon class="cls-4" points="108.61 174.64 78.72 132.32 59.14 165.8 101.74 183.18 108.61 174.64"/>
  </g>
  <path class="cls-9" d="m242.51,277.64h0c-1.24-.99-3.06-.8-4.06.44,1-1.24.8-3.07-.44-4.06-1.24-1-3.06-.8-4.06.44,1-1.24.8-3.06-.44-4.06-1.24-1-3.06-.8-4.06.44,1-1.24.8-3.06-.44-4.06-1.23-.99-3.06-.8-4.06.44,1-1.24.8-3.06-.44-4.06-1.24-1-3.06-.8-4.06.44,1-1.24.8-3.06-.44-4.06-1.24-1-3.07-.8-4.06.44,1-1.24.8-3.06-.44-4.06-1.24-.99-3.06-.8-4.06.44,1-1.24.8-3.06-.44-4.06-1.23-1-3.06-.8-4.05.44.99-1.24.79-3.06-.45-4.06-1.23-1-3.07-.8-4.06.44,1-1.24.8-3.06-.44-4.06-1.24-.99-3.06-.8-4.06.44,1-1.24.8-3.06-.44-4.06-1.23-1-3.06-.8-4.06.44,1-1.24.8-3.06-.44-4.06-1.24-1-3.06-.8-4.06.44l-6.78,8.44c-1,1.24-.8,3.06.44,4.06,1.23,1,3.06.8,4.06-.44-1,1.24-.8,3.06.44,4.06,1.24,1,3.06.8,4.06-.44-1,1.24-.8,3.06.44,4.06,1.24,1,3.06.79,4.06-.44-1,1.23-.8,3.06.44,4.06,1.23,1,3.06.8,4.06-.44-1,1.24-.8,3.06.44,4.06,1.24.99,3.06.8,4.06-.44-1,1.24-.8,3.06.44,4.06,1.24,1,3.07.8,4.06-.44-1,1.24-.8,3.06.44,4.06,1.23,1,3.06.8,4.06-.44-1,1.24-.8,3.06.44,4.06,1.23,1,3.06.8,4.05-.44-.99,1.24-.79,3.06.45,4.06,1.24,1,3.07.8,4.06-.44-1,1.24-.81,3.06.44,4.06,1.24,1,3.07.8,4.05-.44-.99,1.24-.8,3.06.45,4.06,1.23.99,3.06.8,4.05-.44-.99,1.24-.79,3.06.45,4.06,1.23.99,3.06.8,4.05-.44l6.79-8.44c1-1.24.8-3.06-.44-4.06"/>
  <path class="cls-11" d="m200.52,431.62c0,4.6-3.73,8.33-8.33,8.33s-8.33-3.73-8.33-8.33v-91.66c0-2.62,1.21-4.95,3.09-6.48l11.54-10.49v-7.19l-91.55-74.94-90.15,73.8c-3.56,2.91-8.81,2.39-11.71-1.17-2.91-3.56-2.39-8.81,1.17-11.72l95.32-78.03c3.01-2.54,7.49-2.66,10.64-.08l99.66,81.58c1.99,1.52,3.28,3.92,3.28,6.62v14.79h-.02c0,2.26-.91,4.51-2.72,6.15l-11.9,10.82v88Z"/>
  <path class="cls-3" d="m88.33,279.91h17.44v17.44h-17.44v-17.44Zm0,23.74h17.44v17.44h-17.44v-17.44Zm24.23,0h17.44v17.44h-17.44v-17.44Zm0-23.74h17.44v17.44h-17.44v-17.44Z"/>
  <path class="cls-3" d="m118.09,378.74c1,0,1.8.81,1.8,1.8s-.81,1.8-1.8,1.8-1.8-.81-1.8-1.8.81-1.8,1.8-1.8m-28.75-31.46l34.65,11.36v42.96l-34.65,12.19v-66.51Z"/>
  <path class="cls-10" d="m140.12,82.32s9.98,22.17,36.03,68.73c26.05,46.56,59.31,106.42,59.31,106.42-32.7-35.91-115.37-126.51-95.34-175.16"/>
  <path class="cls-1" d="m207.89,237.8c-23.57-27.85-63.86-74.16-72.33-109.75-9.26,46.68,38.27,85.42,72.33,109.75"/>
  <path class="cls-6" d="m164.66,209.26s-21.62-22.73-27.16-36.31c.32,16.41,11.65,31.27,27.16,36.31"/>
  <path class="cls-9" d="m59.73,215.88c2.33,12.64.7,15-11.93,17.33,12.64-2.33,15-.7,17.33,11.93-2.33-12.64-.7-15,11.94-17.33-12.64,2.33-15,.7-17.33-11.93"/>
  <path class="cls-9" d="m92.58,197.44c1.61,8.72.49,10.35-8.24,11.96,8.72-1.61,10.35-.48,11.96,8.24-1.61-8.72-.49-10.35,8.24-11.96-8.72,1.61-10.35.49-11.96-8.24"/>
  <path class="cls-9" d="m71.75,195.23c1.2,6.5.36,7.72-6.14,8.92,6.5-1.2,7.72-.36,8.92,6.14-1.2-6.5-.36-7.72,6.14-8.92-6.5,1.2-7.72.36-8.91-6.14"/>
  <path class="cls-3" d="m70.37,353.64c1.93,0,3.49,1.56,3.49,3.49s-1.56,3.49-3.49,3.49-3.49-1.57-3.49-3.49,1.57-3.49,3.49-3.49m-17.91-5.14c2.18,0,3.95,1.77,3.95,3.95s-1.77,3.95-3.95,3.95-3.95-1.77-3.95-3.95,1.77-3.95,3.95-3.95Zm14.88-21.12c2.58,0,4.68,2.1,4.68,4.68s-2.1,4.69-4.68,4.69-4.68-2.1-4.68-4.69,2.09-4.68,4.68-4.68Zm-21.31-5.32c2.08,0,3.77,1.68,3.77,3.76s-1.69,3.77-3.77,3.77-3.77-1.69-3.77-3.77,1.69-3.76,3.77-3.76Zm16.16-21.49c1.78,0,3.21,1.44,3.21,3.21s-1.44,3.21-3.21,3.21-3.21-1.44-3.21-3.21,1.44-3.21,3.21-3.21Zm-28.64,36.91c1.77,0,3.21,1.44,3.21,3.21s-1.44,3.21-3.21,3.21-3.21-1.44-3.21-3.21,1.44-3.21,3.21-3.21Zm11.66,29.2c1.72,0,3.13,1.39,3.13,3.12s-1.4,3.13-3.13,3.13-3.12-1.4-3.12-3.13,1.4-3.12,3.12-3.12Zm22.22,6.98c4.16,0,7.53,3.37,7.53,7.52s-3.37,7.53-7.53,7.53-7.53-3.37-7.53-7.53,3.37-7.52,7.53-7.52Z"/>
</svg>